<svg class="thumb" width="751" height="378" viewBox="0,0,751,378" xmlns="http://www.w3.org/2000/svg" xmlns:inkscape="http://www.inkscape.org/namespaces/inkscape" xmlns:sodipodi="http://sodipodi.sourceforge.net/DTD/sodipodi-0.dtd" xmlns:xlink="http://www.w3.org/1999/xlink" xmlns:ns1="http://www.inkscape.org/namespaces/inkscape" xmlns:sketch="http://www.bohemiancoding.com/sketch/ns"><defs></defs><g><g transform="matrix(0.8312,0,0,0.8312,288.9592,61.1704)"><svg width="185.988" height="162.359" viewBox="-4.609,3,185.988,162.359"><defs><linearGradient x1="0" y1="0.5" x2="1" y2="0.5" id="linearGradientSk1mjvuil7o"><stop offset="0%" stop-color="#4c96d7"></stop><stop offset="100%" stop-color="#4c96d7"></stop></linearGradient></defs><g><polygon points="88.385,8 0.391,160.359 176.379,160.359 " fill="url('#linearGradientSk1mjvuil7o')"></polygon></g></svg></g><g transform="matrix(0.2988,0,0,0.2988,335.3887,64.4767)"><svg width="185.988" height="162.359" viewBox="-4.609,3,185.988,162.359"><defs><linearGradient x1="0" y1="0.5" x2="1" y2="0.5" id="linearGradientSk1mjvuil7u"><stop offset="0%" stop-color="#1761a0"></stop><stop offset="100%" stop-color="#1761a0"></stop></linearGradient></defs><g><polygon points="88.385,8 0.391,160.359 176.379,160.359 " fill="url('#linearGradientSk1mjvuil7u')"></polygon></g></svg></g><g transform="matrix(0.3463,0,0,0.4683,330.9853,119.847)"><svg width="185.988" height="162.359" viewBox="-4.609,3,185.988,162.359"><defs><linearGradient x1="0" y1="0.5" x2="1" y2="0.5" id="linearGradientSk1mjvuil80"><stop offset="0%" stop-color="#1761a0"></stop><stop offset="100%" stop-color="#1761a0"></stop></linearGradient></defs><g><polygon points="88.385,8 0.391,160.359 176.379,160.359 " fill="url('#linearGradientSk1mjvuil80')"></polygon></g></svg></g><g transform="matrix(2.3818,0,0,2.3818,262.5744,0.0081)"><svg width="80" height="89.4" viewBox="10,5.300000000000001,80,89.4"><defs><linearGradient x1="0" y1="0.5" x2="1" y2="0.5" id="linearGradientSk1mjvuil86"><stop offset="0%" stop-color="#000000"></stop><stop offset="100%" stop-color="#000000"></stop></linearGradient></defs><g><path d="M64.1,51.6c-0.1-0.4-0.3-0.8-0.6-1l-11.2-19l9.9-16.8c0.6-1,0.2-2.2-0.7-2.7c-1-0.6-2.2-0.2-2.7,0.7l-6.6,11.2V12.3   c0-1.1-0.9-2-2-2s-2,0.9-2,2v12.1l-6.9-11.7c-0.6-1-1.8-1.3-2.7-0.7c-1,0.6-1.3,1.8-0.7,2.7l9.9,16.8L15.3,86.7   c-0.4,0.6-0.4,1.4,0,2c0.4,0.6,1,1,1.7,1h66c0.7,0,1.4-0.4,1.7-1c0.4-0.6,0.4-1.4,0-2L64.1,51.6z M50,35.5L58.5,50H41.5L50,35.5z    M39.1,54h8.4L33.6,85.7H20.5L39.1,54z M50,58.3l12,27.4H38L50,58.3z M66.4,85.7L52.5,54h8.4l18.6,31.7H66.4z" fill="url('#linearGradientSk1mjvuil86')"></path></g></svg></g><g transform="matrix(0.9039,0,0,0.9039,81.5712,168.0843)"><svg width="608" height="251" style="overflow: visible;"><defs><linearGradient x1="0" y1="0.5" x2="1" y2="0.5" id="linearGradientSk1mjvuilc5"><stop offset="0%" stop-color="#4c96d7"></stop><stop offset="100%" stop-color="#4c96d7"></stop></linearGradient></defs><g><path d="M-271.20000000000005-30.7L-271.20000000000005-30.7Q-271.20000000000005-37.7 -268.20000000000005-44.95Q-265.20000000000005-52.2 -259.70000000000005-58.4Q-254.20000000000005-64.6 -245.35000000000005-68.55Q-236.50000000000006-72.5 -227.05000000000004-72.5Q-217.60000000000005-72.5 -212.25000000000006-69Q-206.90000000000003-65.5 -206.90000000000003-59.3Q-206.90000000000003-53.1 -210.95000000000005-49.65Q-215.00000000000006-46.2 -220.20000000000005-46.2Q-225.40000000000003-46.2 -229.55000000000004-48.45Q-233.70000000000005-50.7 -236.20000000000005-54.9L-236.20000000000005-54.9Q-241.60000000000005-52.3 -245.50000000000006-44.7Q-249.40000000000003-37.1 -249.40000000000003-29.45Q-249.40000000000003-21.8 -246.90000000000003-17.35Q-244.40000000000003-12.9 -239.80000000000004-12.9Q-235.20000000000005-12.9 -231.65000000000003-17.6Q-228.10000000000005-22.3 -228.10000000000005-28.9L-228.10000000000005-28.9Q-218.00000000000006-28.9 -213.65000000000003-27.3Q-209.30000000000004-25.7 -209.30000000000004-20.4L-209.30000000000004-20.4Q-209.30000000000004-12.1 -218.30000000000004-4.8Q-227.30000000000004 2.5 -240.90000000000003 2.5Q-254.50000000000006 2.5 -262.85-5.9Q-271.20000000000005-14.3 -271.20000000000005-30.7ZM-152.10000000000002-52.4L-152.10000000000002-52.4Q-146.50000000000003-52.4 -142.45000000000005-47.9Q-138.40000000000003-43.4 -138.40000000000003-34.85Q-138.40000000000003-26.3 -141.40000000000003-19.05Q-144.40000000000003-11.8 -149.30000000000004-7.2Q-154.20000000000005-2.6 -160.40000000000003-0.05Q-166.60000000000002 2.5 -173.10000000000002 2.5L-173.10000000000002 2.5Q-186.20000000000005 2.5 -193.80000000000004-4.7Q-201.40000000000003-11.9 -201.40000000000003-23.8L-201.40000000000003-23.8Q-201.40000000000003-39.9 -191.05000000000004-49.95Q-180.70000000000005-60 -164.70000000000005-60L-164.70000000000005-60Q-161.10000000000002-60 -157.50000000000003-59.2L-157.50000000000003-59.2Q-156.40000000000003-55.9 -156.30000000000004-51.7L-156.30000000000004-51.7Q-154.20000000000005-52.4 -152.10000000000002-52.4ZM-164.40000000000003-38.5L-164.40000000000003-38.5Q-164.40000000000003-41.3 -163.05000000000004-44.8Q-161.70000000000005-48.3 -158.70000000000005-50.4L-158.70000000000005-50.4Q-171.90000000000003-47.6 -176.90000000000003-39.7L-176.90000000000003-39.7Q-181.20000000000005-32.9 -181.20000000000005-25.7Q-181.20000000000005-18.5 -178.25000000000003-14.15Q-175.30000000000004-9.8 -170.70000000000005-9.8L-170.70000000000005-9.8Q-160.50000000000003-9.8 -156.30000000000004-23.1L-156.30000000000004-23.1Q-164.40000000000003-28.1 -164.40000000000003-38.5ZM-65.10000000000007-42.2L-65.10000000000007-42.2L-64.10000000000007-41.7Q-53.40000000000006-60 -37.90000000000006-60L-37.90000000000006-60Q-25.800000000000068-60 -25.800000000000068-47.9L-25.800000000000068-47.9Q-25.800000000000068-42.7 -28.750000000000057-30.3Q-31.70000000000006-17.9 -31.70000000000006-11.6Q-31.70000000000006-5.3 -29.600000000000065-2.4L-29.600000000000065-2.4Q-34.90000000000006 2.5 -40.80000000000007 2.5L-40.80000000000007 2.5Q-52.30000000000007 2.5 -52.30000000000007-9.9L-52.30000000000007-9.9Q-52.30000000000007-14.5 -49.30000000000007-25.5Q-46.30000000000007-36.5 -46.30000000000007-39.8L-46.30000000000007-39.8Q-46.30000000000007-44.3 -49.70000000000006-44.3L-49.70000000000006-44.3Q-52.50000000000006-44.3 -55.95000000000006-41.85Q-59.40000000000006-39.4 -62.55000000000007-35.25Q-65.70000000000006-31.1 -67.85000000000007-24.75Q-70.00000000000006-18.4 -70.00000000000006-11.85Q-70.00000000000006-5.3 -67.90000000000006-2.4L-67.90000000000006-2.4Q-73.20000000000006 2.5 -79.10000000000007 2.5L-79.10000000000007 2.5Q-90.60000000000007 2.5 -90.60000000000007-9.9L-90.60000000000007-9.9Q-90.60000000000007-14.5 -87.60000000000007-25.5Q-84.60000000000007-36.5 -84.60000000000007-39.8L-84.60000000000007-39.8Q-84.60000000000007-44.3 -88.00000000000006-44.3L-88.00000000000006-44.3Q-90.80000000000007-44.3 -94.25000000000006-41.85Q-97.70000000000006-39.4 -100.85000000000007-35.25Q-104.00000000000006-31.1 -106.15000000000006-24.75Q-108.30000000000007-18.4 -108.30000000000007-11.85Q-108.30000000000007-5.3 -106.20000000000006-2.4L-106.20000000000006-2.4Q-111.50000000000006 2.5 -117.40000000000006 2.5L-117.40000000000006 2.5Q-128.90000000000006 2.5 -128.90000000000006-9.9L-128.90000000000006-9.9Q-128.90000000000006-13.9 -126.85000000000007-25.4Q-124.80000000000007-36.9 -122.60000000000007-46.4L-122.60000000000007-46.4L-127.80000000000007-54.4Q-117.90000000000006-60 -109.50000000000006-60Q-101.10000000000007-60 -101.10000000000007-52.4L-101.10000000000007-52.4Q-101.10000000000007-47.4 -103.40000000000006-42.2L-103.40000000000006-42.2L-102.40000000000006-41.7Q-91.70000000000006-60 -76.20000000000006-60L-76.20000000000006-60Q-70.60000000000007-60 -67.35000000000007-57.2Q-64.10000000000007-54.4 -64.10000000000007-48.8L-64.10000000000007-48.8Q-64.10000000000007-45.8 -65.10000000000007-42.2ZM-4.7000000000000455 19.9Q-10.900000000000047 19.9 -13.350000000000048 16.85Q-15.800000000000047 13.8 -15.800000000000047 8.05Q-15.800000000000047 2.3 -13.350000000000048-15.1Q-10.900000000000047-32.5 -8.600000000000048-44.8L-8.600000000000048-44.8L-14.200000000000047-52.8Q-8.000000000000046-56.4 -3.500000000000046-58.25Q 0.9999999999999538-60.1  5.399999999999952-60.1L 5.399999999999952-60.1Q 12.599999999999952-60.1  12.599999999999952-50.6L 12.599999999999952-50.6Q 12.599999999999952-49.3  12.199999999999953-45.3L 12.199999999999953-45.3L 13.199999999999953-44.8Q 16.09999999999995-52  21.59999999999995-56.05Q 27.09999999999995-60.1  34.549999999999955-60.1Q 41.99999999999995-60.1  46.399999999999956-53.35Q 50.79999999999995-46.6  50.79999999999995-36.6L 50.79999999999995-36.6Q 50.79999999999995-23.2  41.399999999999956-12.2L 41.399999999999956-12.2Q 36.799999999999955-6.8  29.09999999999995-3.45Q 21.399999999999956-0.1  11.899999999999956-0.1L 11.899999999999956-0.1Q 8.999999999999954-0.1  4.2999999999999545-0.6L 4.2999999999999545-0.6Q 3.999999999999954 2.9  3.999999999999954 5.9L 3.999999999999954 5.9Q 3.999999999999954 12.3  7.099999999999952 15L 7.099999999999952 15Q 1.4999999999999538 19.9 -4.7000000000000455 19.9ZM 8.399999999999952-21.5L 8.399999999999952-21.5L 6.099999999999952-9.9Q 18.199999999999953-10.2  25.449999999999953-17.85Q 32.69999999999995-25.5  32.69999999999995-34.6L 32.69999999999995-34.6Q 32.69999999999995-39.3  30.84999999999995-42.15Q 28.99999999999995-45  25.49999999999995-45L 25.49999999999995-45Q 13.099999999999952-45  8.399999999999952-21.5ZM 97.99999999999994-12.3L 97.99999999999994-12.3L 96.99999999999994-12.8Q 94.29999999999995-5.6  89.24999999999994-1.55Q 84.19999999999995 2.5  77.99999999999994 2.5L 77.99999999999994 2.5Q 69.49999999999994 2.5  64.39999999999995-3.9Q 59.29999999999995-10.3  59.29999999999995-21L 59.29999999999995-21Q 59.29999999999995-37.6  70.44999999999995-48.8Q 81.59999999999995-60  98.19999999999995-60L 98.19999999999995-60Q 102.49999999999994-60  106.09999999999994-59.2L 106.09999999999994-59.2Q 106.69999999999995-56.4  106.79999999999995-54.3L 106.79999999999995-54.3Q 111.79999999999995-57.5  117.09999999999994-57.5L 117.09999999999994-57.5Q 124.39999999999995-57.5  124.39999999999995-49.6L 124.39999999999995-49.6Q 124.39999999999995-46.8  121.24999999999994-32.7Q 118.09999999999994-18.6  118.09999999999994-11.8Q 118.09999999999994-5  121.19999999999996-2.4L 121.19999999999996-2.4Q 115.59999999999994 2.5  109.54999999999995 2.5Q 103.49999999999994 2.5  100.74999999999994-1.1Q 97.99999999999994-4.7  97.99999999999994-12.3ZM 78.09999999999995-25.9L 78.09999999999995-25.9Q 78.09999999999995-21  80.14999999999995-18.35Q 82.19999999999995-15.7  85.99999999999994-15.7Q 89.79999999999995-15.7  93.49999999999994-18.5Q 97.19999999999995-21.3  99.69999999999995-26.2L 99.69999999999995-26.2Q 100.59999999999994-36.3  103.59999999999994-50.1L 103.59999999999994-50.1Q 93.49999999999994-50.1  85.79999999999995-42.8Q 78.09999999999995-35.5  78.09999999999995-25.9ZM 145.89999999999998 2.5Q 139.99999999999997 2.5  137.2-0.6Q 134.39999999999998-3.7  134.39999999999998-8.8Q 134.39999999999998-13.9  136.45-25.4Q 138.49999999999997-36.9  140.7-46.4L 140.7-46.4L 135.49999999999997-54.4Q 145.39999999999998-60  153.79999999999998-60Q 162.2-60  162.2-52.4L 162.2-52.4Q 162.2-47.4  159.89999999999998-42.2L 159.89999999999998-42.2L 160.89999999999998-41.7Q 171.59999999999997-60  188.09999999999997-60L 188.09999999999997-60Q 200.2-60  200.2-47.9L 200.2-47.9Q 200.2-42.7  197.24999999999997-30.3Q 194.29999999999998-17.9  194.29999999999998-11.6Q 194.29999999999998-5.3  196.39999999999998-2.4L 196.39999999999998-2.4Q 191.09999999999997 2.5  185.2 2.5L 185.2 2.5Q 173.7 2.5  173.7-9.9L 173.7-9.9Q 173.7-14.5  176.7-25.5Q 179.7-36.5  179.7-39.8L 179.7-39.8Q 179.7-44.3  176.29999999999998-44.3L 176.29999999999998-44.3Q 173.49999999999997-44.3  169.89999999999998-41.85Q 166.29999999999998-39.4  162.95-35.25Q 159.59999999999997-31.1  157.29999999999998-24.75Q 154.99999999999997-18.4  154.99999999999997-11.85Q 154.99999999999997-5.3  157.09999999999997-2.4L 157.09999999999997-2.4Q 151.79999999999998 2.5  145.89999999999998 2.5ZM 237.89999999999998-2L 237.89999999999998-2Q 233.2-0.3  228.5-0.3Q 223.79999999999998-0.3  220.6-3.1Q 217.39999999999998-5.9  216.89999999999998-10.7Q 216.39999999999998-15.5  216-24.65Q 215.6-33.8  215.2-37.6L 215.2-37.6Q 213.89999999999998-50.3  207.2-55.7L 207.2-55.7Q 211.89999999999998-60  219-60L 219-60Q 222.89999999999998-60  225.79999999999998-57.95Q 228.7-55.9  230.45-52.55Q 232.2-49.2  233.29999999999998-43.9L 233.29999999999998-43.9Q 235-35.1  235-20.1L 235-20.1Q 235-16.4  234.7-11.4L 234.7-11.4L 240.5-11.4Q 250.79999999999998-39.2  250.79999999999998-49.3L 250.79999999999998-49.3Q 250.79999999999998-52.7  249.29999999999998-55.7L 249.29999999999998-55.7Q 256.3-60  261.5-60L 261.5-60Q 271.2-60  271.2-48.8L 271.2-48.8Q 271.2-39.9  263-17.5L 263-17.5Q 261.5-13.4  261.3-12.7L 261.3-12.7Q 248.6 23.5  225.2 23.5L 225.2 23.5Q 218.1 23.5  213.5 20.45Q 208.89999999999998 17.4  208.89999999999998 12.45Q 208.89999999999998 7.5  212.6 2.1L 212.6 2.1Q 217.39999999999998 8.9  224.6 8.9L 224.6 8.9Q 228.7 8.9  232.25 6.2Q 235.79999999999998 3.5  237.89999999999998-2Z" data-textpath="Company" data-text-anchor="middle" data-font-size="100" data-letterspacing="0" data-side="left" data-offset="0" data-dx="0" data-dy="143.25" data-xmlspace="preserve" data-href="" data-font="Lemon" data-font-src="/Content/clientfonts/lemon.woff" data-font-scale="contain" transform="translate(304,143.25)" data-x="304" data-y="0" fill="url('#linearGradientSk1mjvuilc5')"></path></g></svg></g><g transform="matrix(0.5,0,0,0.5,261.348,288)"><svg width="380" height="242" style="overflow: visible;"><defs><linearGradient x1="0" y1="0.5" x2="1" y2="0.5" id="linearGradientSk1mjvuilc8"><stop offset="0%" stop-color="#000000"></stop><stop offset="100%" stop-color="#000000"></stop></linearGradient></defs><g><path d="M-99.05000000000001-70L-83.05000000000001-70L-83.05000000000001 0L-96.35000000000001 0L-131.25-42.5L-131.25 0L-147.25 0L-147.25-70L-133.85000000000002-70L-99.05000000000001-27.5L-99.05000000000001-70ZM-45.85-54.6Q-33.35-54.6 -26.65-48.65Q-19.950000000000003-42.7 -19.950000000000003-30.7L-19.950000000000003-30.7L-19.950000000000003 0L-34.55 0L-34.55-6.7Q-38.95 0.8 -50.95 0.8L-50.95 0.8Q-57.15 0.8 -61.7-1.3Q-66.25-3.4 -68.65-7.1Q-71.05-10.8 -71.05-15.5L-71.05-15.5Q-71.05-23 -65.4-27.3Q-59.75-31.6 -47.95-31.6L-47.95-31.6L-35.55-31.6Q-35.55-36.7 -38.65-39.45Q-41.75-42.2 -47.95-42.2L-47.95-42.2Q-52.25-42.2 -56.4-40.85Q-60.55-39.5 -63.45-37.2L-63.45-37.2L-69.05-48.1Q-64.65-51.2 -58.5-52.9Q-52.35-54.6 -45.85-54.6L-45.85-54.6ZM-47.05-9.7Q-43.05-9.7 -39.95-11.55Q-36.85-13.4 -35.55-17L-35.55-17L-35.55-22.5L-46.25-22.5Q-55.85-22.5 -55.85-16.2L-55.85-16.2Q-55.85-13.2 -53.5-11.45Q-51.15-9.7 -47.05-9.7L-47.05-9.7ZM 63.050000000000004-54.6Q 73.15-54.6  79.10000000000002-48.65Q 85.05000000000001-42.7  85.05000000000001-30.8L 85.05000000000001-30.8L 85.05000000000001 0L 69.45000000000002 0L 69.45000000000002-28.4Q 69.45000000000002-34.8  66.80000000000001-37.95Q 64.15-41.1  59.25000000000001-41.1L 59.25000000000001-41.1Q 53.75000000000001-41.1  50.55000000000001-37.55Q 47.35000000000001-34  47.35000000000001-27L 47.35000000000001-27L 47.35000000000001 0L 31.750000000000007 0L 31.750000000000007-28.4Q 31.750000000000007-41.1  21.55000000000001-41.1L 21.55000000000001-41.1Q 16.15000000000001-41.1  12.95000000000001-37.55Q 9.75000000000001-34  9.75000000000001-27L 9.75000000000001-27L 9.75000000000001 0L-5.84999999999999 0L-5.84999999999999-53.8L 9.050000000000011-53.8L 9.050000000000011-47.6Q 12.050000000000011-51  16.40000000000001-52.8Q 20.750000000000007-54.6  25.95000000000001-54.6L 25.95000000000001-54.6Q 31.650000000000013-54.6  36.25000000000001-52.35Q 40.85000000000001-50.1  43.65000000000001-45.8L 43.65000000000001-45.8Q 46.95000000000001-50  52.00000000000001-52.3Q 57.050000000000004-54.6  63.050000000000004-54.6L 63.050000000000004-54.6ZM 152.35-26.7Q 152.35-26.4  152.05-22.5L 152.05-22.5L 111.35-22.5Q 112.45-17.5  116.55000000000001-14.6Q 120.65-11.7  126.75-11.7L 126.75-11.7Q 130.95-11.7  134.2-12.95Q 137.45-14.2  140.25-16.9L 140.25-16.9L 148.55-7.9Q 140.95 0.8  126.35 0.8L 126.35 0.8Q 117.25 0.8  110.25-2.75Q 103.25-6.3  99.45-12.6Q 95.65-18.9  95.65-26.9L 95.65-26.9Q 95.65-34.8  99.4-41.15Q 103.15-47.5  109.7-51.05Q 116.25-54.6  124.35-54.6L 124.35-54.6Q 132.25-54.6  138.65-51.2Q 145.05-47.8  148.7-41.45Q 152.35-35.1  152.35-26.7L 152.35-26.7ZM 124.45-42.8Q 119.15-42.8  115.55000000000001-39.8Q 111.95-36.8  111.15-31.6L 111.15-31.6L 137.65-31.6Q 136.85-36.7  133.25-39.75Q 129.65-42.8  124.45-42.8L 124.45-42.8Z" data-textpath="Name" data-text-anchor="middle" data-font-size="100" data-letterspacing="0" data-side="left" data-offset="0" data-dx="0" data-dy="136.5" data-xmlspace="preserve" data-href="" data-font="Montserrat" data-font-src="/Content/clientfonts/montserrat-bold.woff" data-font-scale="contain" transform="translate(190,136.5)" data-x="190" data-y="0" fill="url('#linearGradientSk1mjvuilc8')"></path></g></svg></g></g></svg>